<?xml version="1.0" encoding="utf-8"?>
<!-- Generator: Adobe Illustrator 16.0.0, SVG Export Plug-In . SVG Version: 6.00 Build 0)  -->
<!DOCTYPE svg PUBLIC "-//W3C//DTD SVG 1.1//EN" "http://www.w3.org/Graphics/SVG/1.1/DTD/svg11.dtd">
<svg version="1.1" id="Layer_1" xmlns="http://www.w3.org/2000/svg" xmlns:xlink="http://www.w3.org/1999/xlink" x="0px" y="0px"
	 width="194px" height="50px" viewBox="0 0 194 50" enable-background="new 0 0 194 50" xml:space="preserve">
<g>
	<path fill="#D21419" d="M19.419,16.684l7.366,2.227c-0.495,2.066-1.274,3.792-2.338,5.177c-1.064,1.386-2.384,2.431-3.962,3.136
		c-1.576,0.705-3.584,1.058-6.021,1.058c-2.957,0-5.372-0.43-7.245-1.289c-1.875-0.858-3.492-2.37-4.853-4.533
		c-1.361-2.163-2.041-4.933-2.041-8.308c0-4.499,1.196-7.957,3.591-10.374C6.31,1.359,9.696,0.151,14.075,0.151
		c3.426,0,6.12,0.693,8.08,2.078c1.961,1.386,3.417,3.514,4.37,6.383l-7.422,1.651c-0.26-0.828-0.532-1.435-0.816-1.818
		c-0.471-0.643-1.046-1.138-1.726-1.484c-0.681-0.346-1.441-0.52-2.282-0.52c-1.905,0-3.365,0.767-4.379,2.298
		c-0.768,1.137-1.15,2.923-1.15,5.356c0,3.015,0.457,5.081,1.373,6.199c0.915,1.118,2.201,1.677,3.859,1.677
		c1.607,0,2.823-0.451,3.646-1.354C18.451,19.715,19.048,18.403,19.419,16.684z"/>
	<path fill="#D21419" d="M29.81,14.234c0-4.44,1.236-7.897,3.711-10.372c2.474-2.474,5.919-3.711,10.335-3.711
		c4.527,0,8.016,1.216,10.465,3.646c2.449,2.432,3.674,5.836,3.674,10.215c0,3.18-0.535,5.786-1.605,7.82
		c-1.069,2.035-2.615,3.619-4.639,4.75c-2.021,1.133-4.543,1.698-7.561,1.698c-3.068,0-5.606-0.488-7.617-1.466
		c-2.01-0.977-3.64-2.523-4.889-4.639C30.434,20.061,29.81,17.414,29.81,14.234z M38.215,14.271c0,2.746,0.51,4.72,1.531,5.919
		c1.02,1.2,2.408,1.8,4.165,1.8c1.806,0,3.203-0.587,4.193-1.763c0.989-1.175,1.484-3.284,1.484-6.327
		c0-2.561-0.517-4.432-1.55-5.613c-1.032-1.181-2.434-1.771-4.202-1.771c-1.695,0-3.056,0.601-4.082,1.8
		C38.728,9.516,38.215,11.501,38.215,14.271z"/>
	<path fill="#D21419" d="M80.223,0.615h8.387v16.206c0,1.607-0.25,3.124-0.752,4.552c-0.5,1.428-1.286,2.677-2.355,3.746
		c-1.07,1.069-2.193,1.82-3.368,2.253c-1.633,0.605-3.594,0.908-5.882,0.908c-1.324,0-2.768-0.093-4.332-0.278
		c-1.565-0.186-2.874-0.553-3.925-1.104c-1.052-0.55-2.013-1.331-2.886-2.345c-0.871-1.014-1.469-2.059-1.79-3.134
		c-0.52-1.73-0.779-3.264-0.779-4.599V0.615h8.387v16.592c0,1.483,0.411,2.643,1.233,3.477c0.823,0.834,1.964,1.251,3.424,1.251
		c1.447,0,2.582-0.411,3.404-1.232c0.823-0.822,1.234-1.987,1.234-3.495V0.615z"/>
	<path fill="#D21419" d="M107.851,17.964v-5.659h12.988v11.597c-2.486,1.695-4.685,2.849-6.597,3.46
		c-1.91,0.613-4.178,0.919-6.8,0.919c-3.229,0-5.86-0.55-7.896-1.651c-2.034-1.101-3.611-2.739-4.73-4.917
		c-1.12-2.177-1.68-4.676-1.68-7.496c0-2.969,0.612-5.551,1.837-7.747c1.225-2.195,3.018-3.861,5.381-5
		c1.843-0.878,4.323-1.317,7.44-1.317c3.006,0,5.254,0.272,6.744,0.816c1.491,0.545,2.729,1.389,3.711,2.532
		c0.984,1.145,1.723,2.596,2.218,4.352l-8.108,1.447c-0.334-1.026-0.9-1.812-1.697-2.356c-0.799-0.544-1.816-0.816-3.053-0.816
		c-1.844,0-3.313,0.64-4.406,1.921c-1.096,1.279-1.643,3.306-1.643,6.076c0,2.944,0.554,5.047,1.66,6.309
		c1.107,1.262,2.65,1.893,4.63,1.893c0.939,0,1.837-0.136,2.69-0.408c0.854-0.271,1.83-0.735,2.932-1.392v-2.561H107.851z"/>
	<path fill="#D21419" d="M142.553,23.326h-9.542l-1.326,4.49h-8.582l10.224-27.201h9.168l10.222,27.201h-8.802L142.553,23.326z
		 M140.81,17.444l-3.003-9.778l-2.971,9.778H140.81z"/>
	<path fill="#D21419" d="M155.499,27.816V0.615h14.009c2.598,0,4.583,0.223,5.956,0.668s2.479,1.271,3.321,2.477
		c0.841,1.207,1.262,2.676,1.262,4.407c0,1.51-0.322,2.812-0.966,3.905c-0.644,1.096-1.528,1.983-2.654,2.663
		c-0.718,0.434-1.702,0.792-2.952,1.076c1.001,0.335,1.73,0.669,2.188,1.003c0.309,0.223,0.757,0.699,1.344,1.43
		s0.979,1.294,1.178,1.69l4.07,7.882h-9.497l-4.493-8.313c-0.569-1.076-1.076-1.774-1.521-2.097c-0.606-0.42-1.293-0.631-2.06-0.631
		h-0.742v11.04H155.499z M163.941,11.637h3.544c0.383,0,1.125-0.123,2.227-0.371c0.557-0.111,1.012-0.396,1.363-0.854
		c0.354-0.457,0.529-0.983,0.529-1.577c0-0.878-0.278-1.552-0.835-2.022c-0.557-0.47-1.603-0.705-3.136-0.705h-3.692V11.637z"/>
</g>
<g>
	<path d="M118.157,40.287l2.56-0.403c0.144,1.026,0.544,1.813,1.201,2.358c0.656,0.547,1.574,0.82,2.754,0.82
		c1.188,0,2.071-0.242,2.646-0.727c0.575-0.483,0.862-1.052,0.862-1.704c0-0.585-0.254-1.045-0.762-1.381
		c-0.355-0.229-1.237-0.522-2.646-0.877c-1.898-0.479-3.214-0.894-3.947-1.244c-0.733-0.35-1.29-0.834-1.669-1.452
		c-0.379-0.619-0.567-1.302-0.567-2.05c0-0.681,0.155-1.311,0.467-1.891s0.736-1.063,1.273-1.445
		c0.402-0.298,0.951-0.549,1.646-0.756c0.694-0.206,1.44-0.309,2.236-0.309c1.198,0,2.25,0.172,3.156,0.518
		c0.906,0.345,1.575,0.813,2.007,1.402c0.431,0.59,0.729,1.378,0.892,2.365l-2.531,0.346c-0.115-0.786-0.448-1.4-1-1.841
		c-0.551-0.441-1.33-0.662-2.337-0.662c-1.188,0-2.037,0.197-2.545,0.59c-0.509,0.394-0.763,0.854-0.763,1.381
		c0,0.336,0.105,0.638,0.316,0.906c0.211,0.278,0.542,0.508,0.992,0.69c0.259,0.096,1.021,0.316,2.287,0.661
		c1.831,0.489,3.108,0.89,3.832,1.201c0.725,0.312,1.292,0.765,1.705,1.358c0.412,0.595,0.618,1.333,0.618,2.215
		c0,0.863-0.252,1.676-0.755,2.438c-0.504,0.763-1.229,1.353-2.179,1.77s-2.023,0.625-3.222,0.625c-1.985,0-3.497-0.412-4.538-1.236
		C119.108,43.13,118.444,41.907,118.157,40.287z"/>
	<path d="M135.863,50.699V29.572h2.358v1.984c0.557-0.776,1.185-1.358,1.885-1.747c0.699-0.388,1.548-0.582,2.545-0.582
		c1.304,0,2.454,0.336,3.452,1.007c0.997,0.671,1.749,1.617,2.258,2.84c0.508,1.223,0.762,2.563,0.762,4.02
		c0,1.563-0.28,2.97-0.841,4.222c-0.562,1.251-1.376,2.21-2.445,2.876s-2.193,0.999-3.372,0.999c-0.863,0-1.638-0.182-2.323-0.546
		s-1.249-0.824-1.689-1.381v7.436H135.863z M138.208,37.295c0,1.966,0.397,3.419,1.193,4.358s1.759,1.409,2.891,1.409
		c1.15,0,2.136-0.486,2.955-1.46c0.82-0.973,1.229-2.48,1.229-4.522c0-1.946-0.4-3.404-1.2-4.372
		c-0.801-0.969-1.757-1.453-2.869-1.453c-1.103,0-2.078,0.516-2.927,1.546C138.632,33.832,138.208,35.33,138.208,37.295z"/>
	<path d="M153.224,37.209c0-2.828,0.786-4.923,2.359-6.285c1.313-1.131,2.914-1.696,4.803-1.696c2.1,0,3.816,0.688,5.149,2.063
		c1.332,1.376,1.999,3.276,1.999,5.702c0,1.966-0.295,3.512-0.885,4.639c-0.59,1.126-1.448,2.001-2.574,2.624
		c-1.127,0.623-2.356,0.935-3.689,0.935c-2.138,0-3.866-0.685-5.185-2.056S153.224,39.788,153.224,37.209z M155.885,37.209
		c0,1.956,0.427,3.421,1.28,4.394c0.853,0.974,1.927,1.46,3.221,1.46c1.285,0,2.354-0.489,3.207-1.467
		c0.854-0.979,1.28-2.469,1.28-4.473c0-1.889-0.429-3.32-1.287-4.293c-0.858-0.974-1.925-1.46-3.2-1.46
		c-1.294,0-2.368,0.484-3.221,1.452C156.312,33.791,155.885,35.253,155.885,37.209z"/>
	<path d="M172.484,44.846V29.572h2.329v2.315c0.595-1.083,1.144-1.798,1.647-2.143c0.503-0.346,1.057-0.518,1.661-0.518
		c0.872,0,1.759,0.278,2.66,0.834l-0.892,2.401c-0.633-0.374-1.266-0.561-1.898-0.561c-0.565,0-1.074,0.17-1.524,0.511
		c-0.451,0.34-0.771,0.813-0.964,1.416c-0.287,0.921-0.432,1.928-0.432,3.021v7.996H172.484z"/>
	<path d="M189.917,42.53l0.374,2.287c-0.729,0.152-1.381,0.229-1.956,0.229c-0.94,0-1.669-0.148-2.187-0.445
		c-0.518-0.298-0.882-0.688-1.093-1.173c-0.211-0.483-0.316-1.503-0.316-3.056v-8.787h-1.898v-2.014h1.898V25.79l2.574-1.553v5.335
		h2.604v2.014h-2.604v8.931c0,0.738,0.046,1.213,0.137,1.424s0.239,0.379,0.446,0.504c0.206,0.124,0.501,0.187,0.884,0.187
		C189.068,42.631,189.447,42.598,189.917,42.53z"/>
</g>
<g>
	<path fill="#D21419" d="M182.992,4.541V2.42h0.94c0.188,0,0.332,0.019,0.431,0.057c0.099,0.039,0.177,0.105,0.236,0.202
		c0.059,0.097,0.088,0.203,0.088,0.32c0,0.15-0.049,0.277-0.146,0.38c-0.097,0.104-0.248,0.169-0.451,0.197
		c0.074,0.035,0.131,0.07,0.169,0.105c0.082,0.075,0.16,0.169,0.233,0.282l0.369,0.577h-0.354l-0.28-0.441
		c-0.082-0.127-0.149-0.225-0.203-0.292c-0.053-0.067-0.101-0.115-0.143-0.142c-0.042-0.027-0.084-0.046-0.128-0.057
		c-0.031-0.007-0.084-0.011-0.156-0.011h-0.325v0.942H182.992z M183.272,3.356h0.604c0.128,0,0.229-0.014,0.301-0.04
		s0.127-0.069,0.165-0.128c0.037-0.058,0.057-0.121,0.057-0.189c0-0.101-0.037-0.184-0.109-0.248
		c-0.073-0.064-0.188-0.097-0.346-0.097h-0.671V3.356z"/>
</g>
<circle fill="none" stroke="#D21419" stroke-width="0.3156" stroke-miterlimit="10" cx="183.768" cy="3.499" r="2.191"/>
</svg>
