<svg xmlns="http://www.w3.org/2000/svg" width="278.375" height="82.148"><defs><style>.b{fill:#ffb700}.c{fill:#fff}.d{fill:#006c36}</style></defs><path d="M107.126 44.158H95.74l9.68-10.29-8.866-11.124h8.589c2.734 0 4.714 3.068 4.714 6h.746l-.746-7.433H91.442v.955l10.842 12.687-10.441 11.12c-.608-.539-1.02-1.5-1.768-3.343l-8.321-21.964h-.822l-8.115 21.96c-1.163 3-1.782 3.757-3.346 4.1-2.457-.073-2.726-.889-2.726-4.1V17.017c0-3.483.89-4.167 3.347-4.167v-1.09H59.784v1.09c2.8 0 3.276.549 3.276 4.167V42.73c0 3.414-.407 4.164-3.276 4.164v.951h16.44v-.951c-1.153.07-2.657-.407-2.115-2.119l1.846-5.386h8.657l2.181 5.866c.485 1.232-1.221 1.709-2.246 1.639v.951h26.056v-7.568h-.746c0 1.769-1.025 3.881-2.731 3.881zm-26.742-6.675h-3.677l3.677-10.169v-.067l3.76 10.236zm37.729-12.629a8.65 8.65 0 012.31-1.835 6.561 6.561 0 012.734-.681 7.1 7.1 0 012.929.681 6.5 6.5 0 011.666 1.117q.761-.935 1.545-1.864a13.737 13.737 0 00-1.912-.827 14.216 14.216 0 00-8.246 0 11.852 11.852 0 00-3.628 1.977 10.712 10.712 0 00-2.527 3.144 10.5 10.5 0 00-.949 4.5 15.966 15.966 0 00.678 4.3 9.638 9.638 0 001.774 3.136 8.933 8.933 0 002.6 2.11 16.467 16.467 0 003.474 1.5v2.184h-5.116a2.422 2.422 0 01-.889-.271 3.271 3.271 0 01-.675-.69 3.93 3.93 0 01-.483-.953 3.323 3.323 0 01-.13-1.086h-.76v6.478h9.281v-7.1a5.275 5.275 0 01-2.525-1.085 7.621 7.621 0 01-1.841-2.251 12.494 12.494 0 01-1.082-3.075 18.283 18.283 0 01-.356-3.413 8.81 8.81 0 01.621-3.274 9.814 9.814 0 011.507-2.722zm11.388 15.761a10.32 10.32 0 002.669-2.11 9.39 9.39 0 001.7-3.136 13.255 13.255 0 00.678-4.3 9.039 9.039 0 00-.958-4.443 10.941 10.941 0 00-1.283-1.939l-2.694 1.955a9.1 9.1 0 01.433.874 9.233 9.233 0 01.618 3.341 13.955 13.955 0 01-.415 3.413 10.29 10.29 0 01-1.019 3.075 8.577 8.577 0 01-1.768 2.251 5.816 5.816 0 01-2.6 1.085v7.1h9.279v-6.48h-.749a7.564 7.564 0 01-.133 1.086 4.16 4.16 0 01-.485.953 3.57 3.57 0 01-.749.69 2.066 2.066 0 01-.887.271h-5.054v-2.184a17.463 17.463 0 003.417-1.502z" fill="#5d5c5c"/><path class="b" d="M132.17 19.879c-2.669 2.938-5.059 6-7.5 9.072.268.137.545.064.945-.135l7.979-5.8c2.869-2.384-.004-4.706-1.424-3.137z"/><path class="c" d="M32.603 7.16a12.075 12.075 0 01-6.819 2.114 11.77 11.77 0 01-6.888-2.114C8.05 10.029 0 19.43 0 30.566c0 13.365 11.665 24.685 25.781 24.685h.133c14.193 0 25.586-11.32 25.586-24.685 0-11.136-8.058-20.537-18.897-23.406z"/><path class="b" d="M17.803 52.925c-9.617-3.2-16.571-12-16.571-22.234A23.6 23.6 0 0117.873 8.455l-1.306 10.638 1.371 1.71-.135 32.122zm16.3-.133c9.409-3.412 16.168-12.071 16.168-22.1 0-10.3-7.021-19.1-16.648-22.236l1.23 10.845-1.365 1.435z"/><path class="c" d="M30.347 4.295a4.574 4.574 0 11-4.566-4.3 4.437 4.437 0 014.566 4.3z"/><path class="d" d="M29.184 4.295a3.413 3.413 0 11-3.407-3.2 3.31 3.31 0 013.407 3.2zM19.37 24.482c2.183.683 4.3-.132 6.14-2.247 2.387-2.669 4.574-7.369 6.409-13.639a9.9 9.9 0 01-6.409 1.835 11.9 11.9 0 01-6.208-1.976l-1.218 10.232 1.291 1.633z"/><path class="d" d="M33.357 18.82L32.19 8.455c-.817 10.029-3.068 16.438-6.68 19.577a8.98 8.98 0 01-6.14 2.256l-.2 22.637-.067.349a25.124 25.124 0 006.411.82h.2a24.691 24.691 0 006.821-.889l-.48-33.015z"/><path d="M64.725 66.666v11.683h-1.672V65.127h8.359v1.539zm9.059 11.683a3.085 3.085 0 01-.4.019c-1.52 0-1.975-.589-1.975-2.128v-7.274h1.557v7.2c0 .8.152.855.855.855zm5.741-9.499a2.678 2.678 0 012.356 1.14l.038-.019v-1.026h1.557v9.4h-1.557V77.3l-.038-.019a3.3 3.3 0 01-2.565 1.178c-2.679 0-3.363-2.242-3.363-4.749 0-2.523.761-4.86 3.572-4.86zm.228 8.055c1.9 0 2.166-1.956 2.166-3.248 0-1.387-.228-3.287-2.166-3.287-1.976 0-2.184 1.824-2.184 3.287 0 1.52.246 3.248 2.184 3.248zm18.543-6.478a5.422 5.422 0 01.646 2.888 6.841 6.841 0 01-.589 3.419 3.78 3.78 0 01-3.382 1.729 3.592 3.592 0 01-3.115-1.425 8.166 8.166 0 01-.228-6.06 3.725 3.725 0 013.556-2.128 3.566 3.566 0 013.112 1.577zm-5.243 1.159a5.335 5.335 0 00-.342 2.109 5.053 5.053 0 00.285 2.052 2.078 2.078 0 001.994 1.291 2.2 2.2 0 002.223-1.671 7.371 7.371 0 00.152-2 4.606 4.606 0 00-.247-1.748 2.023 2.023 0 00-1.994-1.368 2.2 2.2 0 00-2.071 1.335zm1.064-4.084l1.368-3.363 1.538.475-1.9 3.268zm8.667 12.994h-.968l.608-2.147h-.54V76.24h1.956v2.071zm7.292-10.183v5.453c0 .588.152 1.139.931 1.139h1.045v1.444h-1.349a2.039 2.039 0 01-2.184-2.2v-5.832h-2.166v-1.391h6.174v1.387zm7.239 8.036a3.085 3.085 0 01-.4.019c-1.52 0-1.975-.589-1.975-2.128v-7.274h1.557v7.2c0 .8.152.855.855.855zm13.356 0v-8.055h-4.35v8.055h-1.558v-9.423h7.466v9.423zm7.164 0a3.085 3.085 0 01-.4.019c-1.52 0-1.976-.589-1.976-2.128v-7.274h1.558v7.2c0 .8.152.855.855.855zm9.366-7.922a5.422 5.422 0 01.646 2.888 6.841 6.841 0 01-.589 3.419 3.78 3.78 0 01-3.382 1.729 3.591 3.591 0 01-3.115-1.425 8.166 8.166 0 01-.228-6.06 3.724 3.724 0 013.552-2.128 3.567 3.567 0 013.116 1.577zm-5.243 1.159a5.317 5.317 0 00-.342 2.109 5.053 5.053 0 00.285 2.052 2.076 2.076 0 001.994 1.291 2.205 2.205 0 002.223-1.671 7.371 7.371 0 00.152-2 4.606 4.606 0 00-.247-1.748 2.024 2.024 0 00-1.994-1.368 2.2 2.2 0 00-2.071 1.335zm19.644 6.763v-8.055h-4.35v8.055h-1.557v-9.423h7.465v9.423zm11.609-7.922a5.422 5.422 0 01.646 2.888 6.841 6.841 0 01-.589 3.419 3.78 3.78 0 01-3.384 1.732 3.592 3.592 0 01-3.115-1.425 8.166 8.166 0 01-.228-6.06 3.725 3.725 0 013.552-2.128 3.566 3.566 0 013.118 1.574zm-5.243 1.159a5.335 5.335 0 00-.342 2.109 5.053 5.053 0 00.285 2.052 2.078 2.078 0 001.994 1.291 2.205 2.205 0 002.223-1.671 7.371 7.371 0 00.152-2 4.606 4.606 0 00-.247-1.748 2.023 2.023 0 00-1.994-1.368 2.2 2.2 0 00-2.071 1.335zm16.244 6.78a3.667 3.667 0 01-.855.1 1.406 1.406 0 01-1.482-1.121l-1.178-3.457-.836-2.641h-.057l-1.045 3.135-1.462 3.97h-1.729l3.495-9.347-.608-2.032c-.19-.646-.4-.988-1.2-.988a3.37 3.37 0 00-.418.019l-.1-1.406a4.756 4.756 0 01.968-.114c1.2 0 1.786.646 2.185 1.862l3.211 9.726c.266.8.323.988 1.045.988zm9.348-3.3c0 2.013-1.558 3.4-3.762 3.4a3.405 3.405 0 01-3.723-3.4v-6.14h1.558v5.662a2.192 2.192 0 104.369 0v-5.662h1.558zm-4.731-7.561l1.368-3.363 1.539.475-1.9 3.268zm10.697 2.808v5.453c0 .588.152 1.139.931 1.139h1.045v1.444h-1.349a2.04 2.04 0 01-2.185-2.2v-5.832h-2.166v-1.391h6.175v1.387zm7.239 8.036a3.084 3.084 0 01-.4.019c-1.52 0-1.976-.589-1.976-2.128v-7.274h1.558v7.2c0 .8.152.855.855.855zm8.454 0v-1.064h-.057a3.212 3.212 0 01-2.6 1.178 2.911 2.911 0 01-1.634-.513l-.057.019v4.179h-1.558V68.926h1.558v5.662c0 1.443.551 2.317 2.184 2.317a2.127 2.127 0 002.166-2.317v-5.662h1.558v9.423zm11.476-7.922a5.422 5.422 0 01.646 2.888 6.841 6.841 0 01-.589 3.419 3.78 3.78 0 01-3.382 1.729 3.592 3.592 0 01-3.115-1.425 8.166 8.166 0 01-.228-6.06 3.725 3.725 0 013.552-2.128 3.567 3.567 0 013.116 1.577zm-5.243 1.159a5.335 5.335 0 00-.342 2.109 5.053 5.053 0 00.285 2.052 2.078 2.078 0 001.994 1.291 2.2 2.2 0 002.223-1.671 7.37 7.37 0 00.152-2 4.606 4.606 0 00-.247-1.748 2.024 2.024 0 00-1.994-1.368 2.2 2.2 0 00-2.071 1.335zm14.857 1.805a1.887 1.887 0 01-1.329-1.862c0-1.387 1.12-2.7 3.419-2.7a4.771 4.771 0 013.3 1.2l-.968 1.178a3.469 3.469 0 00-2.261-.836c-1.254 0-1.938.589-1.938 1.273 0 .589.418 1.083 1.5 1.083h1.6v1.387h-1.539c-1.064 0-1.729.608-1.729 1.425s.817 1.424 2.185 1.424a3.7 3.7 0 002.394-.949l.987 1.12a5.356 5.356 0 01-3.514 1.292c-2.166 0-3.591-1.045-3.591-2.774a2.427 2.427 0 011.482-2.222zm1.254-5.889l1.368-3.363 1.539.475-1.9 3.268zm11.969 10.847l-2.222-3.666-2.223 3.666h-1.881l3.211-4.825-3.058-4.6h1.861l2.09 3.534 2.09-3.534h1.88l-3.077 4.617 3.21 4.806zm5.226-4.958a1.886 1.886 0 01-1.33-1.862c0-1.387 1.121-2.7 3.42-2.7a4.773 4.773 0 013.3 1.2l-.964 1.177a3.467 3.467 0 00-2.26-.836c-1.254 0-1.938.589-1.938 1.273 0 .589.418 1.083 1.5 1.083h1.6v1.387h-1.542c-1.064 0-1.729.608-1.729 1.425s.817 1.424 2.185 1.424a3.7 3.7 0 002.393-.949l.988 1.12a5.36 5.36 0 01-3.514 1.292c-2.166 0-3.591-1.045-3.591-2.774a2.425 2.425 0 011.482-2.222zm10.26 4.958a3.085 3.085 0 01-.4.019c-1.52 0-1.976-.589-1.976-2.128v-7.274h1.558v7.2c0 .8.152.855.855.855zm6.725-7.96c-1.728 0-2.811 1.083-2.811 3.344a2.669 2.669 0 001.709 2.811l2.166.893c1.026.418 1.425.988 1.425 1.729a4.542 4.542 0 01-1.368 2.6l-1.2-.685a7.166 7.166 0 00.532-.892 1.763 1.763 0 00.228-.7c0-.342-.285-.57-.855-.8-2.716-1.045-4.274-1.577-4.274-4.844 0-3.534 2.128-5.015 4.255-5.015a4.51 4.51 0 013.249 1.234l-1.007 1.216a2.848 2.848 0 00-2.049-.891zm4.675 7.96V76.24h1.957v2.109z" fill="#8c8b8b"/></svg>