<?xml version="1.0" encoding="UTF-8"?>
<svg id="Layer_1" data-name="Layer 1" xmlns="http://www.w3.org/2000/svg" viewBox="0 0 721.88 213.35">
  <defs>
    <style>
      .cls-1 {
        fill: #8b6e2b;
      }

      .cls-2 {
        fill: #bfa48b;
      }
    </style>
  </defs>
  <g>
    <path class="cls-1" d="m172.27,186.43c0,1.68-.31,3.25-.92,4.7-.61,1.46-1.47,2.72-2.55,3.78-1.09,1.07-2.36,1.92-3.81,2.55-1.46.63-3.02.95-4.7.95-2.54-.04-4.75-.71-6.64-2-1.89-1.29-3.18-2.86-3.87-4.7,0,.57,0,1.12.03,1.63.02.51.03,1.04.03,1.57v3.07h-1.6v-46.1h1.72v26.19c-.04.53-.07,1.04-.09,1.54-.02.49-.03,1-.03,1.54.33-.9.83-1.76,1.51-2.58.68-.82,1.46-1.54,2.37-2.15.9-.61,1.92-1.1,3.04-1.44,1.13-.35,2.31-.52,3.53-.52,1.68,0,3.25.32,4.7.95,1.45.64,2.73,1.49,3.81,2.55,1.08,1.07,1.94,2.34,2.55,3.81.61,1.48.92,3.03.92,4.67Zm-1.72,0c0-1.43-.27-2.78-.8-4.03-.53-1.25-1.26-2.35-2.18-3.29-.92-.94-2.01-1.68-3.26-2.21-1.25-.53-2.59-.8-4.03-.8s-2.79.27-4.06.8c-1.27.53-2.37,1.27-3.29,2.21-.92.94-1.65,2.04-2.18,3.29-.53,1.25-.8,2.59-.8,4.03s.27,2.78.8,4.03c.53,1.25,1.26,2.34,2.18,3.26.92.92,2.02,1.65,3.29,2.18,1.27.53,2.62.8,4.06.8s2.78-.27,4.03-.8c1.25-.53,2.34-1.26,3.26-2.18s1.65-2.01,2.18-3.26c.53-1.25.8-2.59.8-4.03Z"/>
    <path class="cls-1" d="m208.6,186.43c0-1.64.32-3.2.95-4.67.63-1.48,1.48-2.76,2.55-3.84,1.07-1.09,2.33-1.95,3.78-2.58,1.45-.63,3.02-.95,4.7-.95s3.26.32,4.73.95c1.48.64,2.76,1.5,3.84,2.58,1.09,1.09,1.95,2.37,2.58,3.84.63,1.48.95,3.03.95,4.67s-.32,3.25-.95,4.7c-.64,1.46-1.5,2.72-2.58,3.78-1.09,1.07-2.37,1.92-3.84,2.55-1.48.63-3.05.95-4.73.95s-3.25-.32-4.7-.95c-1.46-.63-2.72-1.48-3.78-2.55-1.07-1.06-1.92-2.33-2.55-3.78-.64-1.45-.95-3.02-.95-4.7Zm1.72,0c0,1.43.27,2.78.8,4.03.53,1.25,1.26,2.34,2.18,3.26s2.01,1.65,3.26,2.18c1.25.53,2.59.8,4.03.8s2.78-.27,4.03-.8c1.25-.53,2.35-1.26,3.29-2.18.94-.92,1.68-2.01,2.21-3.26.53-1.25.8-2.59.8-4.03s-.27-2.78-.8-4.03c-.53-1.25-1.27-2.35-2.21-3.29-.94-.94-2.04-1.68-3.29-2.21-1.25-.53-2.59-.8-4.03-.8s-2.78.27-4.03.8c-1.25.53-2.34,1.27-3.26,2.21-.92.94-1.65,2.04-2.18,3.29-.53,1.25-.8,2.59-.8,4.03Z"/>
    <path class="cls-1" d="m291.65,198.11h-1.72v-3.38l.18-2.77c-.82,1.97-2.14,3.53-3.96,4.7-1.82,1.17-3.86,1.75-6.12,1.75s-3.96-.63-5.26-1.91c-1.29-1.27-1.98-2.93-2.06-4.98v-16.6h1.72v16.47c.08,1.44.59,2.66,1.54,3.69.94,1.02,2.29,1.58,4.06,1.66,1.31,0,2.57-.22,3.78-.65,1.21-.43,2.26-1.03,3.17-1.81.9-.78,1.62-1.71,2.15-2.8.53-1.09.8-2.26.8-3.53v-13.03h1.72v23.18Z"/>
    <path class="cls-1" d="m337.2,159.94h1.66v15.31h7.5v1.66h-7.5v21.08h-1.66v-21.08h-5.41v-1.66h5.41v-15.31Z"/>
    <path class="cls-1" d="m381.46,167c0-.45.16-.84.49-1.17.33-.33.72-.49,1.17-.49.41,0,.78.16,1.11.49.33.33.49.72.49,1.17s-.16.83-.49,1.14c-.33.31-.7.46-1.11.46-.45,0-.84-.15-1.17-.46-.33-.31-.49-.69-.49-1.14Zm2.46,30.98h-1.72v-23.05h1.72v23.05Z"/>
    <path class="cls-1" d="m422.47,186.49c0-1.64.32-3.2.95-4.67.63-1.48,1.5-2.75,2.58-3.81,1.08-1.07,2.36-1.92,3.81-2.55,1.45-.63,3.02-.95,4.7-.95,1.23,0,2.4.18,3.5.55,1.11.37,2.12.86,3.04,1.48s1.72,1.34,2.4,2.18c.68.84,1.2,1.71,1.57,2.61v-6.39h1.54v38.42h-1.78v-18.63c.04-.45.07-.92.09-1.41.02-.49.05-.98.09-1.48-.37.9-.88,1.75-1.54,2.55-.66.8-1.44,1.51-2.34,2.12-.9.61-1.91,1.1-3.01,1.44s-2.3.52-3.57.52c-1.68,0-3.25-.32-4.7-.95-1.46-.63-2.73-1.48-3.81-2.55-1.09-1.06-1.95-2.33-2.58-3.78-.64-1.45-.95-3.02-.95-4.7Zm1.72,0c0,1.44.27,2.78.8,4.03.53,1.25,1.26,2.35,2.18,3.29.92.94,2.02,1.68,3.29,2.21,1.27.53,2.62.8,4.06.8s2.78-.27,4.03-.8c1.25-.53,2.35-1.27,3.29-2.21s1.68-2.04,2.21-3.29c.53-1.25.8-2.59.8-4.03s-.27-2.78-.8-4.03c-.53-1.25-1.27-2.34-2.21-3.26-.94-.92-2.04-1.65-3.29-2.18-1.25-.53-2.59-.8-4.03-.8s-2.79.27-4.06.8c-1.27.53-2.37,1.26-3.29,2.18-.92.92-1.65,2.01-2.18,3.26-.53,1.25-.8,2.59-.8,4.03Z"/>
    <path class="cls-1" d="m507.18,198.11h-1.72v-3.38l.18-2.77c-.82,1.97-2.14,3.53-3.97,4.7s-3.86,1.75-6.12,1.75-3.96-.63-5.26-1.91c-1.29-1.27-1.98-2.93-2.06-4.98v-16.6h1.72v16.47c.08,1.44.59,2.66,1.54,3.69.94,1.02,2.29,1.58,4.06,1.66,1.31,0,2.57-.22,3.78-.65s2.26-1.03,3.17-1.81c.9-.78,1.62-1.71,2.15-2.8.53-1.09.8-2.26.8-3.53v-13.03h1.72v23.18Z"/>
    <path class="cls-1" d="m569.45,182.56c-3.32,1.35-6.64,2.68-9.96,4-3.32,1.31-6.64,2.64-9.96,4,.78,1.84,2,3.33,3.66,4.46,1.66,1.13,3.58,1.69,5.75,1.69,1.39,0,2.68-.25,3.87-.74,1.19-.49,2.25-1.17,3.2-2.03.16.21.33.41.49.61.16.21.35.41.55.61-1.07,1.02-2.29,1.82-3.66,2.4-1.37.57-2.86.86-4.46.86-1.68,0-3.25-.32-4.7-.95s-2.71-1.48-3.78-2.55c-1.07-1.06-1.92-2.33-2.55-3.78-.64-1.45-.95-3.02-.95-4.7s.32-3.2.95-4.67c.63-1.48,1.48-2.75,2.55-3.81,1.07-1.07,2.33-1.92,3.78-2.55,1.46-.63,3.02-.95,4.7-.95,2.46,0,4.62.76,6.49,2.27,1.86,1.52,3.21,3.46,4.03,5.84Zm-10.51-6.45c-1.39,0-2.7.26-3.9.77-1.21.51-2.27,1.21-3.2,2.09-.92.88-1.66,1.92-2.21,3.1-.55,1.19-.85,2.46-.89,3.81-.04.57-.03,1.11.03,1.6s.13.98.21,1.48c3.07-1.23,6.12-2.45,9.13-3.66,3.01-1.21,6.06-2.43,9.13-3.66-.78-1.64-1.9-2.97-3.35-4-1.46-1.02-3.1-1.54-4.95-1.54Z"/>
  </g>
  <path class="cls-2" d="m0,126.67c5.09-1.27,7.27-4.36,7.27-21.08V24.53C7.27,7.81,5.09,4.73,0,3.45v-2h35.44c33.8,0,48.52,15.63,48.52,36.35,0,25.81-19.08,39.98-49.07,39.98h-17.45v27.8c0,16.72,2.18,19.81,7.27,21.08v2H0v-2Zm34.89-51.43c22.9,0,37.8-11.27,37.8-33.8S57.06,4,27.26,4c-3.27,0-6.54.18-9.81.36v70.88h17.45Z"/>
  <path class="cls-2" d="m192.63,126.67c5.09-1.27,7.27-4.36,7.27-21.08V24.53c0-16.72-2.18-19.81-7.27-21.08v-2h24.72v2c-5.09,1.27-7.27,4.36-7.27,21.08v94.5c0,4.73,2.54,7.27,7.27,7.27h29.08c16.36,0,22.53-4.36,27.99-15.99l1.64.36-1.09,17.99h-82.32v-2Z"/>
  <path class="cls-2" d="m405.82,127.03L481.96,4h-39.44c-18.35,0-25.26,6.36-31.26,20.17h-1.45l2.18-22.53h81.05v1.82l-76.33,123.03h37.07c27.08,0,31.8-6.72,38.89-24.17l1.45.18-3.27,26.35h-85.05v-1.82Z"/>
  <path class="cls-2" d="m499.79,127.03L575.93,4h-39.44c-18.35,0-25.26,6.36-31.26,20.17h-1.45l2.18-22.53h81.05v1.82l-76.33,123.03h37.07c27.08,0,31.8-6.72,38.89-24.17l1.45.18-3.27,26.35h-85.05v-1.82Z"/>
  <path class="cls-2" d="m81.78,107.22c-6.36,15.63-10.72,18.17-15.27,19.45v2h19.81v-2c-6.36-1.27-6.36-8-1.64-19.45l2.48-6.17h-2.9l-2.49,6.17Z"/>
  <path class="cls-2" d="m171.56,107.4L127.39.18l-9.27,4,1.09,2.36c1.27,2.54,1.45,4.54.36,7.27l-18.55,45.84h2.86l18.42-45.84c.28.67.56,1.34.83,2.02.75,1.81,1.49,3.61,2.24,5.42,1.09,2.63,2.17,5.26,3.26,7.88l3.89,9.41c1.38,3.33,2.75,6.67,4.13,10,1.33,3.22,2.66,6.43,3.99,9.65,1.15,2.79,2.3,5.57,3.45,8.36.84,2.04,1.69,4.09,2.53,6.13.73,1.78,1.49,3.54,2.18,5.33.68,1.76,1.49,3.45,2.21,5.2.6,1.46,1.21,2.92,1.81,4.37,1.48,3.58,2.96,7.16,4.44,10.74,1.11,2.68,2.22,5.37,3.33,8.05.14.35.29.69.43,1.04,6.36,15.45,6.54,17.99,1.45,19.26v2h22.9v-2c-3.63-1.27-7.45-3.82-13.81-19.26Z"/>
  <path class="cls-2" d="m296.58,108.04c-6.36,15.63-10.72,18.17-15.27,19.45v2h19.81v-2c-6.36-1.27-6.36-8-1.64-19.45l2.48-6.17h-2.9l-2.49,6.17Z"/>
  <path class="cls-2" d="m386.36,108.22L342.2,1l-9.27,4,1.09,2.36c1.27,2.54,1.45,4.54.36,7.27l-18.55,45.84h2.86l18.42-45.84c.28.67.56,1.34.83,2.02.75,1.81,1.49,3.61,2.24,5.42,1.09,2.63,2.17,5.26,3.26,7.88l3.89,9.41c1.38,3.33,2.75,6.67,4.13,10,1.33,3.22,2.66,6.43,3.99,9.65,1.15,2.79,2.3,5.57,3.45,8.36.84,2.04,1.69,4.09,2.53,6.13.73,1.78,1.49,3.54,2.18,5.33.68,1.76,1.49,3.45,2.21,5.2.6,1.46,1.21,2.92,1.81,4.37,1.48,3.58,2.96,7.16,4.44,10.74,1.11,2.68,2.22,5.37,3.33,8.05.14.35.29.69.43,1.04,6.36,15.45,6.54,17.99,1.45,19.26v2h22.9v-2c-3.63-1.27-7.45-3.82-13.81-19.26Z"/>
  <path class="cls-2" d="m721.88,65.61c0-44.52-33.26-65.61-63.97-65.61-38.53,0-64.15,26.71-64.15,65.24,0,44.52,33.26,65.24,64.15,65.24,1.03,0,2.07-.03,3.11-.07v-3.43c-33.33-1.08-57.45-35.42-57.45-71.55,0-29.99,18.35-51.98,49.07-51.98,33.98,0,59.61,34.53,59.61,71.6,0,16.95-5.75,30.93-15.97,40.11v3.89c14.86-10.21,25.61-27.59,25.61-53.44Z"/>
  <circle class="cls-2" cx="310" cy="81.46" r="2.22"/>
  <circle class="cls-2" cx="95.63" cy="81.46" r="2.22"/>
  <circle class="cls-2" cx="680.97" cy="124.76" r="2.22"/>
</svg>